<?xml version="1.0" standalone="no"?>
<!DOCTYPE svg PUBLIC "-//W3C//DTD SVG 20010904//EN"
 "http://www.w3.org/TR/2001/REC-SVG-20010904/DTD/svg10.dtd">
<svg version="1.0" xmlns="http://www.w3.org/2000/svg"
 width="202.000000pt" height="80.000000pt" viewBox="0 0 202.000000 80.000000"
 preserveAspectRatio="xMidYMid meet">

<g transform="translate(0.000000,80.000000) scale(0.100000,-0.100000)"
fill="#000000" stroke="none">
<path d="M1341 753 l-45 -27 32 -13 c29 -12 36 -11 78 16 l46 28 -32 12 c-18
6 -33 11 -34 11 -1 -1 -21 -13 -45 -27z"/>
<path d="M1498 747 l-33 -20 38 -13 c36 -13 41 -12 73 10 l35 23 -40 10 c-34
9 -45 7 -73 -10z"/>
<path d="M1393 679 c-40 -25 -41 -32 -8 -47 36 -17 47 -15 84 12 l33 25 -37
15 c-45 19 -34 20 -72 -5z"/>
<path d="M1565 669 c-21 -17 -41 -32 -43 -34 -7 -7 56 -35 79 -35 11 0 39 14
62 32 l40 32 -39 17 c-51 23 -52 23 -99 -12z"/>
<path d="M88 570 c-27 -21 -28 -23 -28 -131 l0 -109 30 0 c30 0 30 0 30 58 0
60 11 82 42 82 25 0 38 -31 38 -89 0 -48 2 -51 25 -51 25 0 25 1 25 79 0 71
-2 82 -22 95 -25 18 -65 21 -88 6 -12 -8 -16 -1 -20 36 l-5 46 -27 -22z"/>
<path d="M748 569 c-16 -9 -18 -26 -18 -124 l0 -115 25 0 c23 0 25 4 25 43 0
59 9 85 32 92 33 11 48 -12 48 -76 0 -59 0 -59 30 -59 l30 0 0 66 c0 63 -11
101 -34 116 -16 11 -74 10 -81 -2 -13 -22 -25 -8 -25 30 0 42 -4 46 -32 29z"/>
<path d="M1813 563 c-7 -2 -13 -16 -13 -29 0 -17 -6 -24 -20 -24 -12 0 -20 -7
-20 -16 0 -9 9 -18 20 -21 17 -5 20 -14 20 -64 0 -51 3 -61 25 -75 31 -20 88
-11 83 14 -2 10 -11 16 -22 14 -30 -5 -46 17 -46 64 0 42 1 44 30 44 23 0 30
4 30 20 0 16 -7 20 -30 20 -27 0 -30 3 -30 30 0 30 -4 33 -27 23z"/>
<path d="M664 516 c-13 -10 -25 -11 -35 -5 -51 32 -139 -18 -139 -80 0 -70 40
-106 109 -99 29 2 41 0 41 -9 0 -24 -46 -37 -85 -26 -28 9 -37 8 -47 -4 -10
-12 -9 -18 7 -29 51 -38 145 -18 172 36 14 27 18 230 5 230 -4 0 -17 -6 -28
-14z m-36 -58 c7 -7 12 -21 12 -33 0 -12 -5 -26 -12 -33 -29 -29 -78 -7 -78
35 0 36 52 57 78 31z"/>
<path d="M280 455 c0 -35 5 -75 11 -89 23 -50 115 -59 155 -15 13 15 18 37 18
92 1 71 1 72 -26 75 -28 3 -28 3 -28 -57 0 -69 -18 -98 -51 -81 -16 9 -19 22
-19 75 l0 65 -30 0 -30 0 0 -65z"/>
<path d="M987 509 c-28 -16 -49 -68 -43 -104 12 -63 73 -95 145 -75 32 8 41
15 37 26 -3 9 -6 18 -6 20 0 3 -22 2 -48 -2 -37 -5 -51 -2 -61 10 -12 14 -6
16 58 16 l71 0 0 35 c0 52 -36 85 -92 85 -24 0 -51 -5 -61 -11z m81 -41 c21
-21 13 -28 -28 -28 -42 0 -52 12 -22 29 23 14 36 13 50 -1z"/>
<path d="M1186 504 c-9 -8 -16 -29 -16 -45 0 -26 6 -33 45 -50 69 -30 52 -50
-23 -28 -8 2 -19 -4 -25 -14 -10 -14 -9 -20 3 -27 50 -32 135 -17 146 26 9 37
-2 53 -51 75 -51 23 -51 43 1 33 26 -5 35 -3 40 11 4 10 1 21 -7 26 -23 15
-96 10 -113 -7z"/>
<path d="M1415 513 c-11 -3 -30 -14 -42 -26 -20 -17 -23 -31 -23 -89 0 -66 1
-68 25 -68 23 0 24 3 27 68 l3 67 35 0 35 0 3 -67 c3 -65 4 -68 27 -68 24 0
25 2 25 68 0 58 -3 72 -22 90 -25 23 -62 33 -93 25z"/>
<path d="M1620 509 c-81 -33 -78 -152 4 -179 44 -14 118 2 110 25 -5 11 -17
13 -50 8 -45 -6 -74 7 -74 33 0 11 17 14 70 14 68 0 70 1 70 24 0 56 -74 98
-130 75z m76 -46 c17 -17 16 -18 -30 -21 -55 -4 -64 1 -46 23 17 20 54 19 76
-2z"/>
</g>
</svg>
